<svg xmlns="http://www.w3.org/2000/svg" viewBox="0 0 22.28 31.53"><defs><style>.cls-1{fill:#00be73;}</style></defs><g id="Layer_2" data-name="Layer 2"><g id="Layer_1-2" data-name="Layer 1"><path class="cls-1" d="M6.56,6.58c0,6.62,15.72,4.87,15.72,15,0,5.77-5.47,10-12.16,10-4,0-8-1.45-10.12-3.33V19.65c2.91,5.73,6.78,9.44,10.6,9.44,2.91,0,5.25-1.58,5.25-4.65C15.85,17,.61,19.31.61,9.36.61,4,5.34,0,10.86,0a10.94,10.94,0,0,1,6.6,2.27L21,0V11c-3.13-4.57-6.17-8.37-10-8.37C8.25,2.61,6.56,4.14,6.56,6.58Z"/></g></g></svg>