<svg width="156" height="32" viewBox="0 0 156 32" fill="none" xmlns="http://www.w3.org/2000/svg">
<g clip-path="url(#clip0)">
<path d="M15.765 31.4446H0V29.0948H4.29955V3.16154H0V0.811737H15.2439C22.7572 0.811737 28.2294 3.41788 28.2294 9.18557C28.2294 13.287 24.9287 15.765 20.8029 16.8758L33.3541 31.4446H24.2773L13.2895 17.6021H11.422V29.0948H15.765V31.4446ZM11.422 15.295H13.8107C17.5457 15.295 20.8898 13.6716 20.8898 9.27102C20.8898 4.82776 17.5457 3.20426 13.8107 3.20426H11.422V15.295Z" fill="#00BE73"/>
<path d="M52.1593 0.811737V3.16154H47.8163V29.0948H52.1593V31.4446H36.3942V29.0948H40.6938V3.16154H36.3942V0.811737H52.1593Z" fill="#00BE73"/>
<path d="M64.363 6.92124C64.363 13.5434 80.0846 11.7917 80.0846 21.8745C80.0846 27.6422 74.6125 31.8718 67.9243 31.8718C63.8853 31.8718 59.8897 30.4192 57.8051 28.5394V19.9947C60.7149 25.7196 64.5802 29.4366 68.402 29.4366C71.3118 29.4366 73.657 27.8558 73.657 24.7797C73.657 17.3031 58.4131 19.6529 58.4131 9.69827C58.4131 4.3151 63.147 0.38452 68.6626 0.38452C71.3118 0.38452 73.7873 1.45261 75.2639 2.64887L78.7817 0.341797V11.3645C75.6548 6.79307 72.6147 2.99066 68.7494 2.99066C66.0568 2.94794 64.363 4.48599 64.363 6.92124Z" fill="#00BE73"/>
<path d="M129.334 9.10012L150.354 31.4446H151.657V3.16154H156V0.811737H143.796V3.16154H148.834V19.9519L131.028 0.811737H121.517L126.424 6.02402V29.0948H122.081V31.4446H134.285V29.0948H129.334V9.10012Z" fill="#00BE73"/>
<path d="M102.234 2.90521C105.708 2.90521 109.183 4.27236 111.788 6.66489C114.481 9.14286 115.958 12.4753 115.958 16.0214C115.958 19.5674 114.481 22.8999 111.788 25.3778C109.183 27.7704 105.708 29.1375 102.234 29.1375C98.7595 29.1375 95.2851 27.7704 92.7227 25.3778C90.0301 22.8999 88.5534 19.5674 88.5534 16.0214C88.5534 12.4753 90.0301 9.14286 92.7227 6.66489C95.2851 4.27236 98.7595 2.90521 102.234 2.90521ZM102.234 0C93.6347 0 85.6002 6.75033 85.6002 16.0214C85.6002 25.2924 93.6347 32.0427 102.234 32.0427C110.833 32.0427 118.911 25.2924 118.911 16.0214C118.911 6.75033 110.833 0 102.234 0Z" fill="#00BE73"/>
</g>
<defs>
<clipPath id="clip0">
<rect width="156" height="32" fill="white"/>
</clipPath>
</defs>
</svg>
