<svg width="20" height="21" viewBox="0 0 20 21" fill="none" xmlns="http://www.w3.org/2000/svg">
<path d="M14.8506 3.87746C14.6247 3.87633 14.4035 3.94465 14.2151 4.07377C14.0267 4.20288 13.8796 4.38698 13.7924 4.60273C13.7052 4.81848 13.6818 5.05617 13.7252 5.28569C13.7686 5.5152 13.8769 5.72621 14.0363 5.89199C14.1956 6.05776 14.3989 6.17083 14.6204 6.21687C14.8419 6.26292 15.0717 6.23985 15.2805 6.15061C15.4893 6.06138 15.6679 5.90997 15.7935 5.71559C15.9191 5.52121 15.9862 5.2926 15.9862 5.05873C15.9869 4.90387 15.9581 4.75039 15.9013 4.6071C15.8446 4.46382 15.7611 4.33355 15.6555 4.22378C15.55 4.11402 15.4246 4.02692 15.2864 3.96748C15.1483 3.90805 15.0002 3.87745 14.8506 3.87746Z" fill="white"/>
<path d="M9.78699 5.3938C8.84037 5.39268 7.91472 5.68228 7.12718 6.22594C6.33965 6.76961 5.72563 7.54289 5.36287 8.44792C5.00011 9.35295 4.90493 10.349 5.08934 11.3101C5.27375 12.2711 5.72948 13.154 6.39883 13.8468C7.06819 14.5397 7.92109 15.0114 8.84957 15.2022C9.77805 15.3931 10.7404 15.2946 11.6147 14.9191C12.4891 14.5436 13.2361 13.9081 13.7614 13.0929C14.2866 12.2777 14.5664 11.3196 14.5653 10.3398C14.5624 9.02895 14.058 7.77266 13.1626 6.84576C12.2671 5.91886 11.0534 5.3968 9.78699 5.3938ZM9.78699 13.5141C9.18022 13.5152 8.58675 13.33 8.08171 12.9819C7.57668 12.6338 7.18277 12.1384 6.94982 11.5585C6.71686 10.9785 6.65534 10.3401 6.77305 9.724C6.89076 9.10788 7.18239 8.54174 7.61106 8.09724C8.03973 7.65274 8.58617 7.34985 9.1812 7.22691C9.77623 7.10397 10.3931 7.1665 10.9538 7.40659C11.5145 7.64668 11.9938 8.05353 12.331 8.57566C12.6682 9.09779 12.8482 9.71173 12.8482 10.3398C12.8503 10.7576 12.7728 11.1717 12.62 11.5585C12.4672 11.9452 12.2422 12.2969 11.9578 12.5933C11.6734 12.8898 11.3352 13.1253 10.9627 13.2862C10.5902 13.4471 10.1906 13.5304 9.78699 13.5311V13.5141Z" fill="white"/>
<path d="M13.5833 20.3909H5.83161C4.28541 20.3894 2.80297 19.7529 1.70965 18.6212C0.616326 17.4895 0.00145251 15.9551 0 14.3546V6.33092C0.00145251 4.73047 0.616326 3.196 1.70965 2.06431C2.80297 0.932623 4.28541 0.296181 5.83161 0.294678H13.5833C15.1285 0.297684 16.6096 0.934787 17.7017 2.06631C18.7939 3.19784 19.408 4.73145 19.4094 6.33092V14.3546C19.408 15.9541 18.7939 17.4877 17.7017 18.6192C16.6096 19.7508 15.1285 20.3879 13.5833 20.3909ZM5.83161 2.17426C4.76992 2.17576 3.75215 2.61298 3.00142 3.39004C2.2507 4.16711 1.82829 5.22062 1.82684 6.31956V14.3433C1.82829 15.4422 2.2507 16.4957 3.00142 17.2728C3.75215 18.0499 4.76992 18.4871 5.83161 18.4886H13.5833C14.6445 18.4856 15.6615 18.0479 16.4119 17.2711C17.1623 16.4944 17.5852 15.4417 17.5881 14.3433V6.33092C17.5852 5.23244 17.1623 4.17981 16.4119 3.40306C15.6615 2.62631 14.6445 2.18861 13.5833 2.18562L5.83161 2.17426Z" fill="white"/>
</svg>
