<svg width="18" height="16" viewBox="0 0 18 16" fill="none" xmlns="http://www.w3.org/2000/svg">
<path d="M17.9163 2.22328C17.334 2.48625 16.7218 2.66936 16.095 2.7681C16.388 2.71537 16.8193 2.15738 16.9909 1.9333C17.2607 1.5923 17.4654 1.19999 17.5939 0.777784C17.5939 0.747028 17.6232 0.703092 17.5939 0.681123C17.5789 0.673373 17.5624 0.669338 17.5457 0.669338C17.529 0.669338 17.5125 0.673373 17.4976 0.681123C16.8169 1.06795 16.0924 1.36318 15.3413 1.55985C15.3147 1.5677 15.2867 1.56775 15.2601 1.56C15.2335 1.55226 15.2095 1.53701 15.1906 1.51591C15.1331 1.44325 15.0701 1.37566 15.0022 1.31381C14.6903 1.03395 14.3385 0.807116 13.9596 0.641576C13.4513 0.426024 12.903 0.33439 12.356 0.373571C11.8244 0.40676 11.3052 0.556427 10.832 0.812934C10.3594 1.07375 9.94202 1.43247 9.60526 1.8674C9.25522 2.31652 9.00492 2.84184 8.87255 3.40517C8.75974 3.93937 8.74693 4.49149 8.83486 5.03081C8.83486 5.12308 8.83486 5.13626 8.7595 5.12308C5.79517 4.68372 3.33745 3.54577 1.34448 1.16882C1.25656 1.06776 1.21051 1.06776 1.13933 1.16882C0.268452 2.54402 0.691341 4.74962 1.77994 5.83046C1.92648 5.97544 2.07719 6.12043 2.23629 6.26982C1.73585 6.22497 1.24901 6.07559 0.80438 5.83046C0.720642 5.77334 0.674579 5.80848 0.666205 5.90954C0.662893 6.05647 0.671295 6.20344 0.691326 6.3489C0.779105 7.04936 1.04239 7.71285 1.45429 8.27168C1.8662 8.8305 2.412 9.26467 3.03601 9.52989C3.18764 9.59884 3.34642 9.64897 3.50913 9.67927C3.04738 9.77684 2.57336 9.79317 2.1065 9.7276C2.00602 9.7276 1.96415 9.75836 2.00602 9.8638C2.6215 11.6213 3.95712 12.1529 4.93685 12.456C5.07083 12.478 5.20481 12.478 5.35554 12.5132C5.35554 12.5132 5.35554 12.5132 5.33042 12.5351C4.99966 13.0668 3.85245 13.4622 3.31652 13.6555C2.33783 14.022 1.29535 14.1629 0.260088 14.0685C0.0967987 14.0421 0.0591094 14.0421 0.0172404 14.0685C-0.0246287 14.0949 0.0172342 14.1388 0.0632902 14.1827C0.272635 14.3277 0.481989 14.4551 0.699708 14.5782C1.34789 14.9435 2.0333 15.2309 2.74292 15.4349C6.41902 16.5026 10.5557 15.7205 13.3149 12.8427C15.4837 10.5844 16.2457 7.46927 16.2457 4.3498C16.2457 4.22678 16.3838 4.16087 16.4634 4.09497C17.0134 3.64818 17.4986 3.11981 17.9037 2.52645C17.9662 2.44064 18 2.33565 18 2.22768C17.9916 2.17495 17.9874 2.18814 17.9163 2.22328Z" fill="white"/>
</svg>
